HIERARCHY
ROOT Hips
{
  OFFSET -153.954 102.532 184.687
  CHANNELS 6 Xposition Yposition Zposition Zrotation Xrotation Yrotation
  JOINT ToSpine
  {
    OFFSET -2.69724 7.43032 -0.144315
    CHANNELS 3 Zrotation Xrotation Yrotation
    JOINT Spine
    {
      OFFSET -0.0310711 10.7595 1.96963
      CHANNELS 3 Zrotation Xrotation Yrotation
      JOINT Spine1
      {
        OFFSET 19.9056 3.91189 0.764692
        CHANNELS 3 Zrotation Xrotation Yrotation
        JOINT Neck
        {
          OFFSET 25.9749 7.03908 -0.130764
          CHANNELS 3 Zrotation Xrotation Yrotation
          JOINT Head
          {
            OFFSET 9.52751 0.295786 -0.907742
            CHANNELS 3 Zrotation Xrotation Yrotation
            End Site
            {
              OFFSET 16.4037 0.713936 2.7358
            }
          }
        }
        JOINT LeftShoulder
        {
          OFFSET 17.7449 4.33886 11.7777
          CHANNELS 3 Zrotation Xrotation Yrotation
          JOINT LeftArm
          {
            OFFSET 0.911315 1.27913 9.80584
            CHANNELS 3 Zrotation Xrotation Yrotation
            JOINT LeftForeArm
            {
              OFFSET 28.6126 1.18197 -3.53199
              CHANNELS 3 Zrotation Xrotation Yrotation
              JOINT LeftHand
              {
                OFFSET 27.5088 0.0218783 0.327423
                CHANNELS 3 Zrotation Xrotation Yrotation
                End Site
                {
                  OFFSET 18.6038 -0.000155887 0.382096
                }
              }
            }
          }
        }
        JOINT RightShoulder
        {
          OFFSET 17.1009 2.89543 -12.2328
          CHANNELS 3 Zrotation Xrotation Yrotation
          JOINT RightArm
          {
            OFFSET 1.4228 0.178766 -10.211
            CHANNELS 3 Zrotation Xrotation Yrotation
            JOINT RightForeArm
            {
              OFFSET 28.733 1.87905 2.64907
              CHANNELS 3 Zrotation Xrotation Yrotation
              JOINT RightHand
              {
                OFFSET 27.4588 0.290562 -0.101845
                CHANNELS 3 Zrotation Xrotation Yrotation
                End Site
                {
                  OFFSET 17.8396 -0.255518 -0.000602873
                }
              }
            }
          }
        }
      }
    }
  }
  JOINT LeftUpLeg
  {
    OFFSET -5.61296 -2.22332 -10.2353
    CHANNELS 3 Zrotation Xrotation Yrotation
    JOINT LeftLeg
    {
      OFFSET 2.56703 -44.7417 -7.93097
      CHANNELS 3 Zrotation Xrotation Yrotation
      JOINT LeftFoot
      {
        OFFSET 3.16933 -46.5642 -3.96578
        CHANNELS 3 Zrotation Xrotation Yrotation
        JOINT LeftToeBase
        {
          OFFSET 0.346054 -6.02161 12.8035
          CHANNELS 3 Zrotation Xrotation Yrotation
          End Site
          {
            OFFSET 0.134235 -1.35082 5.13018
          }
        }
      }
    }
  }
  JOINT RightUpLeg
  {
    OFFSET -5.7928 -1.72406 10.6446
    CHANNELS 3 Zrotation Xrotation Yrotation
    JOINT RightLeg
    {
      OFFSET -2.57161 -44.7178 -7.85259
      CHANNELS 3 Zrotation Xrotation Yrotation
      JOINT RightFoot
      {
        OFFSET -3.10148 -46.5936 -4.03391
        CHANNELS 3 Zrotation Xrotation Yrotation
        JOINT RightToeBase
        {
          OFFSET -0.0828122 -6.13587 12.8035
          CHANNELS 3 Zrotation Xrotation Yrotation
          End Site
          {
            OFFSET -0.131328 -1.35082 5.13018
          }
        }
      }
    }
  }
}
MOTION
Frames:	6
Frame Time:	0.0333333
14.04 103.481 -1.05928 -69.281 -43.6685 -160.558 -70.1915 0 88.8779 118.174 72.5487 -22.7249 -1.0775 23.4201 2.93803 -149.13 19.1461 169.043 -145.775 56.3211 170.256 2.44533 -4.44355 -38.3314 -107.115 40.9315 -79.2619 -7.98601 39.9348 2.10796 -4.04719 -0.0916642 4.83932 0.343706 -1.15189 41.0866 -68.3878 -35.3707 98.8446 5.50932 -4.25873 32.1697 8.59194 -0.526188 -7.91316 -39.9977 -0.701773 91.2028 2.10241 14.4215 0.742497 4.91972 9.33532 -0.434337 -6.71245 -18.3215 9.16947 -66.6811 9.9401 79.5366 1.66137 29.7347 6.24527 -7.70838 -8.56223 1.14364 -2.09013 -12.0014 -3.95358 
16.0584 103.774 -3.43245 -70.5271 -44.8223 -161.243 -70.1915 0 88.8779 121.36 71.6521 -26.5521 -0.87351 22.9445 3.40171 -148.799 18.8743 167.536 -143.887 55.7288 168.922 2.25331 -5.10655 -37.8786 -105.224 41.9015 -81.156 -7.53259 41.058 0.532612 -3.72556 -0.0632277 4.17589 0.401308 -1.35102 41.7673 -68.3942 -34.1577 98.4683 5.62863 -4.45621 32.1094 8.53667 -0.46198 -7.04094 -39.9941 -0.906095 90.8347 2.03482 19.4771 3.00299 5.09174 10.4816 -0.437313 -7.94392 -21.201 6.76364 -66.087 10.4529 79.6756 1.48442 29.2475 4.07085 -7.90683 -8.03793 1.15162 -1.94506 -11.1773 -2.9309 
17.8515 104.013 -5.58725 -70.1722 -46.2824 -160.434 -70.1915 0 88.8779 119.522 71.3217 -25.0659 -0.396471 22.209 3.93185 -148.145 18.669 166.514 -143.198 55.4761 168.492 2.07577 -5.70216 -37.2332 -103.131 42.7365 -83.7104 -7.63733 43.6592 0.0162315 -3.28706 -0.0271972 3.14443 0.47038 -1.59557 41.9721 -69.6329 -34.431 96.9185 6.16749 -5.40802 31.5805 8.25858 -0.379214 -6.04754 -39.0356 -1.41688 87.3998 0.50782 27.0933 7.16817 5.4641 10.0671 -0.525494 -9.12633 -24.3819 6.51174 -64.364 11.2453 79.9257 1.26342 29.1749 1.58348 -7.31581 -7.30755 1.11518 -1.80316 -10.4072 -2.43621 
19.6127 104.198 -7.41179 -69.6944 -47.7191 -160.292 -70.1915 0 88.8779 115.546 71.2854 -21.9879 0.316927 21.5823 4.38518 -147.413 18.6826 165.982 -143.04 55.5007 168.016 2.03016 -5.82929 -36.8747 -102.23 43.355 -86.68 -8.8946 46.5918 1.88007 -2.43086 0.00838649 1.78376 0.548265 -1.86466 42.2707 -69.5949 -34.5342 95.6376 5.58553 -4.70694 30.0495 9.13892 -0.387009 -5.56292 -38.5074 -2.35346 86.914 -0.148964 35.5275 9.41276 5.72064 10.7404 -0.563538 -11.3583 -30.4803 6.6611 -62.8622 10.6217 79.4976 1.20758 29.1696 0.0614384 -7.70911 -7.61628 1.13949 -1.41263 -8.23412 -1.5059 
21.644 104.305 -9.27953 -69.2215 -48.8642 -159.806 -70.1915 0 88.8779 114.853 70.7635 -21.7035 -0.111906 20.9323 5.10595 -147.001 18.7549 166.3 -143.06 55.5481 167.797 1.9865 -6.03736 -37.0738 -100.935 43.4552 -89.2584 -8.9001 46.6211 1.47928 -2.11956 0.0200202 1.04966 0.562951 -1.91766 42.2553 -69.7787 -35.1393 93.9469 4.00654 -2.0559 29.0162 10.4433 -0.802557 -9.68996 -38.4011 -2.79572 86.811 -0.392333 44.123 10.5282 5.88837 9.62988 -0.622035 -11.5358 -32.0676 8.49318 -60.8931 10.1983 79.121 1.17805 29.744 -1.18476 -7.43917 -7.77641 1.12556 -1.0048 -5.95333 -1.00948 
23.7226 104.328 -11.148 -68.8463 -49.7934 -159.279 -70.1915 0 88.8779 115.218 69.9301 -22.2091 -0.77974 20.2757 5.36943 -146.766 18.6595 166.155 -142.84 55.3665 167.309 1.99963 -5.89036 -36.4701 -100.401 44.2375 -91.0076 -8.71938 46.2887 1.24621 -1.67821 0.00476658 2.12555 0.548454 -1.84884 42.7072 -68.8112 -35.3096 92.7733 2.05163 1.54094 27.8061 11.3922 -1.32815 -14.3899 -39.0289 -3.00206 86.1197 -0.770908 51.9435 11.7796 6.5638 10.2429 -0.749656 -12.8573 -34.8797 7.3412 -58.9473 10.1592 79.2198 0.822018 30.1985 -2.59567 -7.24862 -7.78337 1.11529 -0.682627 -4.0123 -0.526698 
